<?xml version="1.0" standalone="no"?>
<!DOCTYPE svg PUBLIC "-//W3C//DTD SVG 20010904//EN"
 "http://www.w3.org/TR/2001/REC-SVG-20010904/DTD/svg10.dtd">
<svg version="1.0" xmlns="http://www.w3.org/2000/svg"
 width="225.000000pt" height="225.000000pt" viewBox="0 0 225.000000 225.000000"
 preserveAspectRatio="xMidYMid meet">
<metadata>
Created by potrace 1.15, written by Peter Selinger 2001-2017
</metadata>
<g transform="translate(0.000000,225.000000) scale(0.100000,-0.100000)"
fill="#000000" stroke="none">
<path d="M1112 2114 c-5 -16 -49 -128 -97 -249 -86 -219 -135 -374 -135 -428
0 -19 -4 -27 -12 -23 -85 35 -156 48 -232 43 -267 -17 -439 -239 -356 -460 20
-53 72 -113 120 -138 38 -19 144 -39 148 -28 2 5 18 38 35 72 64 125 162 141
263 45 30 -28 31 -33 22 -66 -6 -20 -7 -51 -4 -71 l5 -34 -35 34 -36 34 -55
-60 c-97 -105 -123 -194 -84 -281 39 -86 113 -127 222 -123 l71 2 34 -69 c19
-38 58 -101 87 -140 l52 -72 63 88 c34 49 73 112 86 141 l23 52 70 -2 c110 -4
184 37 224 124 40 85 13 175 -84 280 l-55 60 -36 -34 -35 -34 5 34 c3 20 2 51
-4 71 -9 33 -8 38 22 66 101 96 199 80 263 -45 17 -34 33 -67 35 -72 4 -12
112 10 154 32 45 23 100 91 118 145 47 137 -9 291 -135 374 -79 51 -134 70
-225 75 -76 5 -147 -8 -231 -43 -9 -4 -13 4 -13 21 0 55 -44 194 -136 432 -52
135 -98 253 -103 261 -6 11 -11 8 -19 -14z m79 -355 c77 -199 100 -283 106
-400 l6 -96 64 44 c35 23 90 50 120 59 72 21 180 14 245 -14 61 -27 136 -96
159 -147 25 -54 24 -138 -1 -191 -25 -51 -48 -72 -97 -89 -37 -13 -38 -12 -52
13 -49 98 -123 152 -208 152 -76 0 -171 -52 -222 -122 -27 -36 -28 -40 -15
-76 19 -54 17 -83 -11 -136 l-25 -47 26 -24 c40 -37 87 -31 141 18 22 20 23
20 44 1 29 -26 59 -88 59 -121 0 -38 -33 -89 -69 -108 -42 -21 -127 -19 -180
5 -24 11 -44 20 -46 20 -1 0 -5 -20 -8 -45 -5 -46 -51 -149 -85 -194 l-19 -23
-32 51 c-40 62 -71 141 -71 181 0 17 -2 30 -4 30 -2 0 -23 -9 -47 -20 -118
-53 -248 1 -249 103 0 33 30 95 59 121 21 19 22 19 44 -1 54 -49 101 -55 141
-18 l26 24 -25 47 c-28 53 -30 82 -11 136 13 36 12 40 -15 76 -57 77 -154 127
-236 120 -76 -7 -138 -48 -177 -119 l-32 -57 -37 13 c-76 26 -117 91 -117 185
0 71 25 124 84 178 61 57 125 83 212 89 92 7 164 -14 249 -72 l65 -45 0 73 c0
79 17 169 48 262 33 98 124 326 128 322 3 -2 31 -73 65 -158z"/>
<path d="M1081 1703 c-62 -163 -82 -238 -88 -343 -4 -71 -1 -111 11 -158 9
-35 16 -65 16 -67 0 -2 -24 20 -53 49 -170 170 -343 201 -500 90 -100 -72
-117 -225 -32 -292 36 -28 40 -28 55 8 7 16 31 47 54 68 113 104 260 94 388
-26 73 -68 82 -91 63 -149 -19 -55 -13 -92 21 -133 30 -35 25 -50 -32 -100
-34 -29 -42 -32 -86 -28 -32 4 -57 13 -73 28 l-24 22 -20 -33 c-28 -46 -26
-75 8 -110 25 -24 38 -29 78 -29 51 0 137 34 162 63 22 28 27 20 28 -46 1 -62
28 -154 57 -193 14 -18 16 -15 43 41 21 45 28 79 31 138 4 79 10 89 33 61 26
-32 107 -64 159 -64 44 0 56 5 81 29 34 34 37 64 9 108 l-20 33 -36 -25 c-53
-36 -103 -34 -149 6 -56 49 -60 65 -31 99 34 41 40 78 21 133 -19 58 -10 81
63 149 128 120 275 130 388 26 23 -21 47 -52 54 -68 15 -36 19 -36 55 -8 85
67 68 220 -32 292 -157 111 -330 80 -500 -90 -29 -29 -53 -51 -53 -49 0 2 7
34 16 72 20 84 14 205 -15 313 -17 63 -96 278 -105 287 -2 2 -22 -45 -45 -104z"/>
</g>
</svg>
